<?xml version="1.0" encoding="UTF-8"?>
<svg width="216px" height="68px" viewBox="0 0 216 68" version="1.1" xmlns="http://www.w3.org/2000/svg" xmlns:xlink="http://www.w3.org/1999/xlink">
    <!-- Generator: Sketch 58 (84663) - https://sketch.com -->
    <title>Untitled</title>
    <desc>Created with Sketch.</desc>
    <defs>
        <filter x="-6.1%" y="-24.0%" width="112.1%" height="148.0%" filterUnits="objectBoundingBox" id="filter-1">
            <feOffset dx="0" dy="2" in="SourceAlpha" result="shadowOffsetOuter1"></feOffset>
            <feGaussianBlur stdDeviation="2" in="shadowOffsetOuter1" result="shadowBlurOuter1"></feGaussianBlur>
            <feColorMatrix values="0 0 0 0 0   0 0 0 0 0   0 0 0 0 0  0 0 0 0.5 0" type="matrix" in="shadowBlurOuter1" result="shadowMatrixOuter1"></feColorMatrix>
            <feMerge>
                <feMergeNode in="shadowMatrixOuter1"></feMergeNode>
                <feMergeNode in="SourceGraphic"></feMergeNode>
            </feMerge>
        </filter>
        <path d="M89.512,20.064 L89.512,21.884 L93.404,21.884 C92.508,24.74 90.996,27.316 88.924,29.584 L89.792,31.768 C91.36,29.752 92.592,27.484 93.516,25.02 L93.516,35.8 L95.448,35.8 L95.448,24.516 L95.8476213,25.1105635 C96.6021302,26.248355 97.4769231,27.6498462 98.472,29.332 L99.62,27.624 C98.22,25.86 96.848,24.236 95.448,22.78 L95.448,21.884 L98.808,21.884 L98.808,20.064 L95.448,20.064 L95.448,10.18 L93.516,10.18 L93.516,20.064 L89.512,20.064 Z M97.744,12 C97.576,14.296 97.184,16.312 96.596,18.048 L97.968,18.496 C98.64,16.648 99.088,14.548 99.256,12.196 L97.744,12 Z M91.08,12.476 L89.596,12.952 C90.1,14.8 90.52,16.704 90.856,18.692 L92.256,18.356 C91.892,16.144 91.5,14.184 91.08,12.476 Z M106.34,10.096 L106.34,11.944 L100.348,11.944 L100.348,13.596 L106.34,13.596 L106.34,15.472 L101.132,15.472 L101.132,17.096 L106.34,17.096 L106.34,19 L99.704,19 L99.704,20.68 L114.824,20.68 L114.824,19 L108.272,19 L108.272,17.096 L113.312,17.096 L113.312,15.472 L108.272,15.472 L108.272,13.596 L114.096,13.596 L114.096,11.944 L108.272,11.944 L108.272,10.096 L106.34,10.096 Z M103.148,27.736 L111.296,27.736 L111.296,29.724 L103.148,29.724 L103.148,27.736 Z M111.296,26.168 L103.148,26.168 L103.148,24.096 L111.296,24.096 L111.296,26.168 Z M103.148,31.264 L111.296,31.264 L111.296,32.944 C111.296,33.588 110.988,33.924 110.4,33.924 L108.496,33.812 L109,35.604 L110.96,35.604 C112.472,35.604 113.256,34.848 113.256,33.364 L113.256,22.444 L101.244,22.444 L101.244,35.744 L103.148,35.744 L103.148,31.264 Z M121.18,16.312 C120.032,18.804 118.66,20.932 117.092,22.696 L118.716,23.872 C120.312,21.968 121.712,19.756 122.916,17.18 L121.18,16.312 Z M128.544,21.52 L129.86,20.176 C128.376,18.384 127.088,17.04 125.968,16.144 L124.736,17.348 C125.996,18.524 127.256,19.896 128.544,21.52 Z M121.068,23.2 L119.808,24.628 C120.984,25.58 122.188,26.644 123.364,27.82 C121.712,30.368 119.584,32.356 116.98,33.784 L118.212,35.576 C120.9,34.036 123.084,31.936 124.82,29.304 C125.772,30.312 126.78,31.404 127.788,32.608 L129.216,31.012 C128.152,29.78 127.032,28.604 125.856,27.456 C126.612,26 127.256,24.376 127.76,22.64 L126.024,21.912 C125.576,23.368 125.016,24.74 124.372,26.028 C123.308,25.048 122.216,24.096 121.068,23.2 Z M123.952,9.928 L121.852,10.264 C122.356,11.132 122.832,12.084 123.252,13.092 L117.512,13.092 L117.512,15.024 L130.476,15.024 L130.476,13.092 L125.212,13.092 C124.792,11.916 124.372,10.88 123.952,9.928 Z M134.172,16.62 L138.344,16.62 C138.232,20.176 137.476,23.312 136.132,26.056 C135.068,23.928 134.2,21.436 133.528,18.58 C133.752,17.964 133.948,17.292 134.172,16.62 Z M135.04,27.96 C133.388,30.452 131.064,32.468 128.096,34.036 L129.244,35.856 C132.044,34.26 134.34,32.244 136.104,29.836 C137.672,32.356 139.576,34.344 141.816,35.772 L142.992,34.008 C140.752,32.636 138.82,30.648 137.224,28.072 C139.044,24.88 140.024,21.072 140.192,16.62 L142.572,16.62 L142.572,14.66 L134.704,14.66 C135.012,13.316 135.292,11.888 135.516,10.32 L133.5,9.984 C132.828,15.22 131.484,19.364 129.524,22.444 L130.812,23.984 C131.372,23.144 131.932,22.248 132.436,21.24 C133.136,23.704 134.004,25.944 135.04,27.96 Z M162.424,16.34 L166.568,16.34 C166.456,20.12 165.868,23.424 164.776,26.252 C163.656,23.9 162.76,21.072 162.06,17.796 L162.424,16.34 Z M163.852,28.268 C162.564,30.648 160.856,32.58 158.672,34.092 L159.708,35.772 C161.808,34.26 163.544,32.384 164.888,30.144 C166.288,32.496 167.968,34.4 169.928,35.8 L171.02,34.148 C169.004,32.776 167.296,30.844 165.84,28.324 C167.408,25.02 168.276,21.016 168.416,16.34 L170.236,16.34 L170.236,14.408 L162.844,14.408 C163.068,13.176 163.292,11.832 163.46,10.404 L161.5,10.068 C160.94,15.388 159.82,19.616 158.168,22.752 L159.428,24.292 C160.016,23.284 160.576,22.136 161.08,20.848 C161.836,23.648 162.76,26.112 163.852,28.268 Z M150.58,23.144 C150.384,23.704 150.16,24.292 149.908,24.908 L145.82,24.908 L145.82,26.672 L149.124,26.672 C148.564,27.792 147.92,28.94 147.192,30.172 C148.564,30.676 149.852,31.208 151.084,31.74 C149.46,32.664 147.472,33.42 145.176,34.036 L146.128,35.716 C148.928,34.932 151.252,33.896 153.1,32.608 C154.752,33.336 156.18,34.092 157.412,34.82 L158.504,33.252 C157.272,32.58 155.984,31.964 154.64,31.348 C156.096,30.004 157.132,28.408 157.748,26.56 L157.748,24.908 L151.896,24.908 C152.064,24.404 152.26,23.9 152.456,23.368 L150.58,23.144 Z M152.792,30.564 C151.784,30.144 150.72,29.752 149.6,29.36 C150.16,28.52 150.664,27.624 151.112,26.672 L155.928,26.672 C155.256,28.128 154.192,29.444 152.792,30.564 Z M148.032,10.656 L146.436,11.188 C147.108,12.252 147.724,13.456 148.312,14.828 L149.768,14.156 C149.264,12.924 148.704,11.748 148.032,10.656 Z M156.544,10.572 C156.04,11.748 155.312,12.924 154.416,14.128 L155.844,14.856 C156.74,13.68 157.44,12.476 158,11.244 L156.544,10.572 Z M145.876,15.5 L145.876,17.264 L149.852,17.264 C149.012,18.804 147.5,20.204 145.344,21.464 L146.324,23.088 C148.732,21.464 150.412,19.56 151.336,17.348 L151.336,22.668 L153.212,22.668 L153.212,19.028 C154.22,19.7 155.424,20.596 156.824,21.716 L157.86,20.148 C156.292,19.196 154.724,18.328 153.212,17.572 L153.212,17.264 L158.308,17.264 L158.308,15.5 L153.212,15.5 L153.212,10.152 L151.336,10.152 L151.336,15.5 L145.876,15.5 Z M177.18,13.96 L180.036,13.96 C179.98,14.912 179.896,15.808 179.728,16.676 L173.596,16.676 L173.596,18.524 L179.224,18.524 L178.944,19.196 C178.02,21.1 176.116,22.696 173.204,23.984 L174.548,25.636 C177.32,24.348 179.28,22.724 180.4,20.764 C182.304,21.884 183.816,22.948 184.992,24.012 L186.42,22.584 C184.964,21.464 183.172,20.372 181.044,19.308 C181.1,19.056 181.184,18.804 181.268,18.524 L186.952,18.524 L186.952,16.676 L181.688,16.676 C181.8,15.836 181.884,14.912 181.94,13.96 L186.168,13.96 L186.168,12.168 L178.16,12.168 C178.412,11.608 178.664,10.992 178.916,10.32 L177.096,9.928 C176.172,12.168 175.052,13.904 173.708,15.136 L174.912,16.648 C175.752,15.892 176.508,14.996 177.18,13.96 Z M188.128,12.028 L188.128,22.276 L197.34,22.276 L197.34,12.028 L188.128,12.028 Z M195.38,20.484 L190.088,20.484 L190.088,13.82 L195.38,13.82 L195.38,20.484 Z M195.352,24.292 L177.432,24.292 L177.432,35.856 L179.448,35.856 L179.448,34.596 L193.308,34.596 L193.308,35.856 L195.352,35.856 L195.352,24.292 Z M179.448,32.804 L179.448,30.396 L193.308,30.396 L193.308,32.804 L179.448,32.804 Z M179.448,28.632 L179.448,26.084 L193.308,26.084 L193.308,28.632 L179.448,28.632 Z" id="path-2"></path>
        <path d="M92.7104492,44.6474609 C92.7104492,45.3134799 92.6119802,45.8308901 92.4150391,46.199707 C92.0498029,46.8728875 91.3551483,47.2094727 90.3310547,47.2094727 C89.7402314,47.2094727 89.2353537,47.0492366 88.8164062,46.7287598 C88.3974588,46.4082829 88.1879883,45.8380575 88.1879883,45.0180664 L88.1879883,44.4541016 L89.1923828,44.4541016 L89.1923828,45.0180664 C89.1923828,45.4477561 89.2881664,45.7709136 89.4797363,45.9875488 C89.6713063,46.204184 89.969399,46.3125 90.3740234,46.3125 C90.9433622,46.3125 91.3157543,46.1173522 91.4912109,45.7270508 C91.5986333,45.4871407 91.6523438,45.034183 91.6523438,44.3681641 L91.6523438,39.1098633 L92.7104492,39.1098633 L92.7104492,44.6474609 Z M97.6357422,39.1098633 L98.715332,39.1098633 L98.715332,47 L97.6357422,47 L97.6357422,39.1098633 Z M103.506348,39.1098633 L104.768555,39.1098633 L108.753906,45.5014648 L108.753906,39.1098633 L109.769043,39.1098633 L109.769043,47 L108.571289,47 L104.526855,40.6137695 L104.526855,47 L103.506348,47 L103.506348,39.1098633 Z M117.916992,38.9057617 C118.658207,38.9057617 119.299151,39.0489895 119.839844,39.3354492 C120.624027,39.7472351 121.10384,40.4687448 121.279297,41.5 L120.221191,41.5 C120.092285,40.9234997 119.825523,40.5036634 119.420898,40.2404785 C119.016274,39.9772936 118.506025,39.8457031 117.890137,39.8457031 C117.159664,39.8457031 116.54468,40.1196262 116.045166,40.6674805 C115.545652,41.2153348 115.295898,42.0317329 115.295898,43.1166992 C115.295898,44.054855 115.501788,44.8184378 115.913574,45.4074707 C116.32536,45.9965036 116.99674,46.2910156 117.927734,46.2910156 C118.640303,46.2910156 119.230222,46.0842306 119.69751,45.6706543 C120.164797,45.257078 120.403809,44.5883835 120.414551,43.6645508 L117.943848,43.6645508 L117.943848,42.7783203 L121.408203,42.7783203 L121.408203,47 L120.720703,47 L120.462891,45.9848633 C120.101235,46.3823262 119.780763,46.6580396 119.501465,46.8120117 C119.032387,47.076987 118.436202,47.2094727 117.712891,47.2094727 C116.778316,47.2094727 115.97445,46.9069041 115.30127,46.3017578 C114.567216,45.5426394 114.200195,44.5006577 114.200195,43.1757812 C114.200195,41.8544856 114.558265,40.8035521 115.274414,40.0229492 C115.954756,39.2781538 116.835607,38.9057617 117.916992,38.9057617 Z M126.79541,47 L125.506348,47 L128.331543,42.9555664 L125.683594,39.1098633 L127.020996,39.1098633 L129.035156,42.128418 L131.033203,39.1098633 L132.306152,39.1098633 L129.658203,42.9555664 L132.435059,47 L131.108398,47 L128.981445,43.7558594 L126.79541,47 Z M136.753418,39.1098633 L137.833008,39.1098633 L137.833008,47 L136.753418,47 L136.753418,39.1098633 Z M146.072266,43.7666016 L144.874512,40.2807617 L143.601562,43.7666016 L146.072266,43.7666016 Z M144.315918,39.1098633 L145.524414,39.1098633 L148.387207,47 L147.216309,47 L146.416016,44.6367188 L143.29541,44.6367188 L142.441406,47 L141.345703,47 L144.315918,39.1098633 Z M155.219238,38.8950195 C156.612149,38.8950195 157.643389,39.3426062 158.312988,40.237793 C158.835777,40.9360386 159.097168,41.8294216 159.097168,42.9179688 C159.097168,44.0960345 158.79818,45.0753542 158.200195,45.855957 C157.498369,46.7726283 156.497565,47.230957 155.197754,47.230957 C153.983881,47.230957 153.029626,46.8299194 152.334961,46.027832 C151.715492,45.2543907 151.405762,44.2768614 151.405762,43.0952148 C151.405762,42.0281522 151.670733,41.1150754 152.200684,40.355957 C152.881026,39.3819938 153.8872,38.8950195 155.219238,38.8950195 Z M155.32666,46.2749023 C156.268397,46.2749023 156.949624,45.937422 157.370361,45.2624512 C157.791099,44.5874803 158.001465,43.8113651 158.001465,42.934082 C158.001465,42.0066685 157.758873,41.260094 157.273682,40.6943359 C156.78849,40.1285779 156.125167,39.8457031 155.283691,39.8457031 C154.467281,39.8457031 153.801272,40.1258924 153.285645,40.6862793 C152.770017,41.2466662 152.512207,42.0729112 152.512207,43.1650391 C152.512207,44.0387413 152.733315,44.775469 153.175537,45.3752441 C153.617759,45.9750193 154.334793,46.2749023 155.32666,46.2749023 Z M169.640625,39.1098633 L175.393066,39.1098633 L175.393066,40.0766602 L170.682617,40.0766602 L170.682617,42.472168 L175.038574,42.472168 L175.038574,43.3852539 L170.682617,43.3852539 L170.682617,46.0600586 L175.473633,46.0600586 L175.473633,47 L169.640625,47 L169.640625,39.1098633 Z M183.600098,42.7246094 C184.101402,42.7246094 184.497964,42.62435 184.789795,42.4238281 C185.081626,42.2233063 185.227539,41.8616563 185.227539,41.3388672 C185.227539,40.7766899 185.02344,40.3935557 184.615234,40.1894531 C184.396809,40.0820307 184.104982,40.0283203 183.739746,40.0283203 L181.129395,40.0283203 L181.129395,42.7246094 L183.600098,42.7246094 Z M183.712891,39.1098633 C184.314456,39.1098633 184.810382,39.1975903 185.200684,39.3730469 C185.941898,39.7096371 186.3125,40.3308874 186.3125,41.2368164 C186.3125,41.709475 186.214926,42.0961899 186.019775,42.3969727 C185.824625,42.6977554 185.551597,42.9394522 185.200684,43.1220703 C185.508628,43.2473965 185.740478,43.4121084 185.89624,43.6162109 C186.052003,43.8203135 186.138835,44.1515277 186.156738,44.6098633 L186.194336,45.6679688 C186.205078,45.9687515 186.230143,46.1925448 186.269531,46.3393555 C186.333985,46.5900078 186.448567,46.751139 186.613281,46.8227539 L186.613281,47 L185.302734,47 C185.266927,46.9319658 185.238281,46.8442388 185.216797,46.7368164 L185.196506,46.5959745 C185.19014,46.5378873 185.184172,46.4686601 185.178602,46.3882927 L185.098633,44.7978516 C185.073568,44.282224 184.882,43.9366871 184.523926,43.7612305 C184.319823,43.6645503 183.999351,43.6162109 183.5625,43.6162109 L181.129395,43.6162109 L181.129395,47 L180.060547,47 L180.060547,39.1098633 L183.712891,39.1098633 Z M194.583984,39.1098633 C195.285811,39.1098633 195.85156,39.3076966 196.28125,39.7033691 C196.71094,40.0990417 196.925781,40.6549443 196.925781,41.3710938 C196.925781,41.9869822 196.734214,42.5231911 196.351074,42.9797363 C195.967934,43.4362816 195.37891,43.6645508 194.583984,43.6645508 L192.102539,43.6645508 L192.102539,47 L191.033691,47 L191.033691,39.1098633 L194.583984,39.1098633 Z M194.229492,40.0283203 L192.102539,40.0283203 L192.102539,42.762207 L194.229492,42.762207 C194.709312,42.762207 195.098713,42.6601573 195.397705,42.4560547 C195.696697,42.2519521 195.846191,41.8920924 195.846191,41.3764648 C195.846191,40.7963838 195.63135,40.4025075 195.20166,40.1948242 C194.965331,40.0838211 194.641278,40.0283203 194.229492,40.0283203 L194.229492,40.0283203 Z" id="path-3"></path>
    </defs>
    <g id="Page-1" stroke="none" stroke-width="1" fill="none" fill-rule="evenodd">
        <g id="logo" filter="url(#filter-1)" transform="translate(9.000000, 9.000000)" fill-rule="nonzero">
            <g>
                <path d="M23,4 C23,6.20933333 21.2088889,8 19,8 C16.7911111,8 15,6.20933333 15,4 C15,1.79066667 16.7911111,0 19,0 C21.2088889,0 23,1.79066667 23,4" id="Fill-1" fill="#FE0087"></path>
                <path d="M15,15 C15,17.2088889 13.2088889,19 11,19 C8.79111111,19 7,17.2088889 7,15 C7,12.7906667 8.79111111,11 11,11 C13.2088889,11 15,12.7906667 15,15" id="Fill-3" fill="#FE0087"></path>
                <path d="M7.99991111,25 C7.99991111,27.2093333 6.2088,29 3.99991111,29 C1.79102222,29 -8.88888889e-05,27.2093333 -8.88888889e-05,25 C-8.88888889e-05,22.7906667 1.79102222,21 3.99991111,21 C6.2088,21 7.99991111,22.7906667 7.99991111,25" id="Fill-5" fill="#FE0087"></path>
                <path d="M20,25 C20,27.2093333 18.2088889,29 16,29 C13.7911111,29 12,27.2093333 12,25 C12,22.7906667 13.7911111,21 16,21 C18.2088889,21 20,22.7906667 20,25" id="Fill-8" fill="#FE0087"></path>
                <path d="M14,36 C14,38.2093333 12.2088889,40 10,40 C7.79111111,40 6,38.2093333 6,36 C6,33.7906667 7.79111111,32 10,32 C12.2088889,32 14,33.7906667 14,36" id="Fill-10" fill="#FE0087"></path>
                <path d="M22,46 C22,48.2088889 20.2088889,50 18,50 C15.7911111,50 14,48.2088889 14,46 C14,43.7906667 15.7911111,42 18,42 C20.2088889,42 22,43.7906667 22,46" id="Fill-12" fill="#FE0087"></path>
                <path d="M33,25 C33,27.2093333 31.2093333,29 29,29 C26.7915556,29 25,27.2093333 25,25 C25,22.7906667 26.7915556,21 29,21 C31.2093333,21 33,22.7906667 33,25" id="Fill-14" fill="#FE0087"></path>
                <path d="M45,25 C45,27.2093333 43.2088889,29 41,29 C38.7911111,29 37,27.2093333 37,25 C37,22.7906667 38.7911111,21 41,21 C43.2088889,21 45,22.7906667 45,25" id="Fill-16" fill="#FE0087"></path>
                <path d="M57,25 C57,27.2093333 55.2088889,29 53,29 C50.7906667,29 49,27.2093333 49,25 C49,22.7906667 50.7906667,21 53,21 C55.2088889,21 57,22.7906667 57,25" id="Fill-18" fill="#FE0087"></path>
                <path d="M28,15 C28,17.2093333 26.2088889,19 24,19 C21.7911111,19 20,17.2093333 20,15 C20,12.7911111 21.7911111,11 24,11 C26.2088889,11 28,12.7911111 28,15" id="Fill-20" fill="#3F5DB3"></path>
                <path d="M40,15 C40,17.2093333 38.2088889,19 36,19 C33.7911111,19 32,17.2093333 32,15 C32,12.7911111 33.7911111,11 36,11 C38.2088889,11 40,12.7911111 40,15" id="Fill-22" fill="#3F5DB3"></path>
                <path d="M52,15 C52,17.2093333 50.2084444,19 48,19 C45.7906667,19 44,17.2093333 44,15 C44,12.7911111 45.7906667,11 48,11 C50.2084444,11 52,12.7911111 52,15" id="Fill-24" fill="#3F5DB3"></path>
                <path d="M64,15 C64,17.2093333 62.208544,19 60.0002222,19 C57.7910116,19 56,17.2093333 56,15 C56,12.7911111 57.7910116,11 60.0002222,11 C62.208544,11 64,12.7911111 64,15" id="Fill-26" fill="#3F5DB3"></path>
                <path d="M76,15 C76,17.2093333 74.2093333,19 72,19 C69.7906667,19 68,17.2093333 68,15 C68,12.7911111 69.7906667,11 72,11 C74.2093333,11 76,12.7911111 76,15" id="Fill-28" fill="#3F5DB3"></path>
                <path d="M70,4 C70,6.20933333 68.2093333,8 66,8 C63.7906667,8 62,6.20933333 62,4 C62,1.79066667 63.7906667,0 66,0 C68.2093333,0 70,1.79066667 70,4" id="Fill-30" fill="#3F5DB3"></path>
                <path d="M70,26 C70,28.2093333 68.2088889,30 66,30 C63.7911111,30 62,28.2093333 62,26 C62,23.7906667 63.7911111,22 66,22 C68.2088889,22 70,23.7906667 70,26" id="Fill-32" fill="#3F5DB3"></path>
            </g>
            <g id="精效数智">
                <use fill="#000000" xlink:href="#path-2"></use>
                <use fill="#3F5DB3" xlink:href="#path-2"></use>
            </g>
            <g id="JINGXIAOERP">
                <use fill="#000000" xlink:href="#path-3"></use>
                <use fill="#3F5DB3" xlink:href="#path-3"></use>
            </g>
        </g>
    </g>
</svg>